<svg width="18" height="18" viewBox="0 0 18 18" fill="none" xmlns="http://www.w3.org/2000/svg">
<path d="M4.16748 13.6823H13.8235C15.0496 13.6823 15.6824 13.0438 15.6824 11.8347V5.73256C15.6824 4.52344 15.0496 3.89062 13.8235 3.89062H4.16748C2.94706 3.89062 2.30859 4.52344 2.30859 5.73256V11.8347C2.30859 13.0495 2.94706 13.6823 4.16748 13.6823ZM3.43297 5.83426C3.43297 5.29185 3.72112 5.02065 4.24093 5.02065H13.7501C14.2699 5.02065 14.558 5.29185 14.558 5.83426V6.24107H3.43297V5.83426ZM4.24093 12.5522C3.72112 12.5522 3.43297 12.281 3.43297 11.7386V7.56885H14.558V11.7386C14.558 12.281 14.2699 12.5522 13.7501 12.5522H4.24093ZM5.00935 11.5296H6.39362C6.72698 11.5296 6.95299 11.3092 6.95299 10.9928V9.94189C6.95299 9.62549 6.72698 9.40513 6.39362 9.40513H5.00935C4.68164 9.40513 4.45564 9.62549 4.45564 9.94189V10.9928C4.45564 11.3092 4.68164 11.5296 5.00935 11.5296Z" fill="#F1685B"/>
</svg>
